<?xml version="1.0" encoding="utf-8"?>
<svg width="17px" height="17px" viewbox="0 0 17 17" version="1.1" xmlns:xlink="http://www.w3.org/1999/xlink" xmlns="http://www.w3.org/2000/svg">
  <path d="M16 1.77778C16 0.795938 15.2041 0 14.2222 0L1.77778 0C0.795938 0 0 0.795938 0 1.77778L0 14.2222C0 15.2041 0.795938 16 1.77778 16L14.2222 16C15.2041 16 16 15.2041 16 14.2222L16 1.77778ZM14.2221 12.2844C14.2245 12.4038 14.1787 12.5192 14.0951 12.6045C14.0115 12.6898 13.8971 12.7378 13.7777 12.7378C13.6421 12.7385 13.514 12.6761 13.431 12.5689L9.87546 8.12444C9.79248 8.01727 9.66433 7.95484 9.52879 7.95555C9.39294 7.95344 9.2642 8.01616 9.18213 8.12444L7.14657 10.6844C7.0645 10.7927 6.93576 10.8554 6.7999 10.8533C6.66034 10.852 6.52918 10.7864 6.44435 10.6755L5.55546 9.46666C5.4662 9.35648 5.33279 9.2914 5.19101 9.28888C5.05145 9.29025 4.92029 9.35583 4.83546 9.46666L2.57768 12.56C2.49569 12.6742 2.3627 12.7407 2.22213 12.7378C2.10352 12.7402 1.98904 12.6942 1.90516 12.6103C1.82127 12.5264 1.77523 12.4119 1.77768 12.2933L1.77768 1.77777L14.2221 1.77777L14.2221 12.2844ZM5.77767 7.11112C6.51405 7.11112 7.111 6.51417 7.111 5.77779C7.111 5.04141 6.51405 4.44446 5.77767 4.44446C5.04129 4.44446 4.44434 5.04141 4.44434 5.77779C4.44434 6.51417 5.04129 7.11112 5.77767 7.11112Z" transform="translate(0.5 0.5)" id="image-icon" fill="#A7A8B8" fill-rule="evenodd" stroke="none" />
</svg>