<svg width="18" height="18" viewBox="0 0 18 18" fill="none" xmlns="http://www.w3.org/2000/svg">
<path opacity="0.302781" fill-rule="evenodd" clip-rule="evenodd" d="M17.875 16.4602L13.875 12.4554C13.7454 12.3226 13.6012 12.2051 13.445 12.105L12.445 11.4142C14.5019 8.86596 14.521 5.23099 12.491 2.66125C10.461 0.0915127 6.92359 -0.727158 3.9731 0.689914C1.0226 2.10699 -0.553566 5.38161 0.177728 8.5751C0.909021 11.7686 3.75261 14.0287 7.025 14.0173C8.61304 14.0178 10.1541 13.4776 11.395 12.4855L12.145 13.4867C12.234 13.6156 12.3344 13.7362 12.445 13.8471L16.445 17.8519C16.5389 17.9467 16.6667 18 16.8 18C16.9333 18 17.0611 17.9467 17.155 17.8519L17.855 17.1511C18.0448 16.9631 18.0536 16.6589 17.875 16.4602ZM7.02502 12.0149C4.2636 12.0149 2.02502 9.77362 2.02502 7.00887C2.02502 4.24412 4.2636 2.00284 7.02502 2.00284C9.78645 2.00284 12.025 4.24412 12.025 7.00887C12.025 8.33655 11.4982 9.60985 10.5606 10.5487C9.62288 11.4875 8.35111 12.0149 7.02502 12.0149Z" fill="white"/>
</svg>
