<svg xmlns="http://www.w3.org/2000/svg" width="20" height="20" fill="none" viewBox="0 0 20 20">
  <path fill="#000" d="M8.437 2.005c.414-.877 1.46-1.27 2.343-.815.346.178.619.467.783.815l1.785 3.78a.242.242 0 0 0 .177.143l3.993.606c.973.148 1.595 1.073 1.465 2.013-.053.38-.225.737-.496 1.013l-2.889 2.942a.31.31 0 0 0-.079.264l.721 4.157c.16.979-.525 1.884-1.452 2.05a1.7 1.7 0 0 1-1.12-.184l-3.57-1.962a.2.2 0 0 0-.196 0l-3.57 1.962c-.872.478-1.928.113-2.364-.753a1.822 1.822 0 0 1-.17-1.113l.682-4.155a.31.31 0 0 0-.078-.266L1.512 9.56a1.814 1.814 0 0 1-.03-2.495 1.722 1.722 0 0 1 1-.531l3.992-.606a.242.242 0 0 0 .178-.143l1.785-3.78Z"/>
</svg>
