<?xml version="1.0" encoding="utf-8"?>
<svg width="11px" height="19px" viewbox="0 0 11 19" version="1.1" xmlns:xlink="http://www.w3.org/1999/xlink" xmlns="http://www.w3.org/2000/svg">
  <path d="M10 6.95455L10 13.0909C10 15.8021 7.76142 18 5 18C2.23858 18 0 15.8021 0 13.0909L0 3.68182C3.08613e-08 1.64841 1.67893 -1.81673e-16 3.75 0C5.82107 0 7.5 1.64841 7.5 3.68182L7.5 12.2727C7.5 13.6283 6.38071 14.7273 5 14.7273C3.61929 14.7273 2.5 13.6283 2.5 12.2727L2.5 6.95455C2.5 6.84605 2.5439 6.74199 2.62204 6.66527C2.70018 6.58856 2.80616 6.54545 2.91667 6.54545L3.54167 6.54545C3.77179 6.54545 3.95833 6.72861 3.95833 6.95455L3.95833 12.2727C3.95833 12.8376 4.4247 13.2955 5 13.2955C5.5753 13.2955 6.04167 12.8376 6.04167 12.2727L6.04167 3.68182C6.04167 2.43918 5.01565 1.43182 3.75 1.43182C2.48435 1.43182 1.45833 2.43918 1.45833 3.68182L1.45833 13.0909C1.45833 15.0114 3.04399 16.5682 5 16.5682C6.95601 16.5682 8.54167 15.0114 8.54167 13.0909L8.54167 6.95455C8.54167 6.72861 8.72821 6.54545 8.95833 6.54545L9.58333 6.54545C9.81345 6.54545 10 6.72861 10 6.95455Z" transform="translate(0.5 0.5)" id="attachment-icon" fill="#A7A8B8" fill-rule="evenodd" stroke="none" />
</svg>