<?xml version="1.0" encoding="utf-8"?>
<svg width="19px" height="19px" viewbox="0 0 19 19" version="1.1" xmlns:xlink="http://www.w3.org/1999/xlink" xmlns="http://www.w3.org/2000/svg">
  <path d="M8 1L8 5C8 5.55228 7.55228 6 7 6L1 6C0.447715 6 0 5.55228 0 5L0 1C0 0.447715 0.447715 0 1 0L7 0C7.55228 0 8 0.447715 8 1ZM7 8L1 8C0.447715 8 0 8.44771 0 9L0 17C0 17.5523 0.447715 18 1 18L7 18C7.55228 18 8 17.5523 8 17L8 9C8 8.44771 7.55228 8 7 8ZM17 12L11 12C10.4477 12 10 12.4477 10 13L10 17C10 17.5523 10.4477 18 11 18L17 18C17.5523 18 18 17.5523 18 17L18 13C18 12.4477 17.5523 12 17 12ZM17 0L11 0C10.4477 0 10 0.447715 10 1L10 9C10 9.55228 10.4477 10 11 10L17 10C17.5523 10 18 9.55228 18 9L18 1C18 0.447715 17.5523 0 17 0Z" transform="translate(0.5 0.5)" id="dashboard-icon" fill="#FFFFFF" fill-opacity="0.40094867" fill-rule="evenodd" stroke="none" />
</svg>