<?xml version="1.0" encoding="utf-8"?>
<svg width="17px" height="17px" viewbox="0 0 17 17" version="1.1" xmlns:xlink="http://www.w3.org/1999/xlink" xmlns="http://www.w3.org/2000/svg">
  <path d="M8 3.55271e-16C3.58172 -1.77636e-16 3.55271e-16 3.58172 0 8C-3.55271e-16 12.4183 3.58172 16 8 16C12.4183 16 16 12.4183 16 8C16 5.87827 15.1571 3.84344 13.6569 2.34315C12.1566 0.842855 10.1217 1.77636e-16 8 3.55271e-16ZM8.0001 14.4C4.46548 14.4 1.6001 11.5346 1.6001 7.99998C1.6001 4.46535 4.46548 1.59998 8.0001 1.59998C11.5347 1.59998 14.4001 4.46535 14.4001 7.99998C14.4001 9.69736 13.7258 11.3252 12.5256 12.5255C11.3253 13.7257 9.69748 14.4 8.0001 14.4ZM10.4 4.79999C9.51639 4.79999 8.80005 5.51633 8.80005 6.39999L8.80005 6.79999C8.80005 7.0209 8.97913 7.19999 9.20005 7.19999L11.6 7.19999C11.821 7.19999 12 7.0209 12 6.79999L12 6.39999C12 5.51633 11.2837 4.79999 10.4 4.79999ZM6.8 7.19999C7.02091 7.19999 7.2 7.0209 7.2 6.79999L7.2 6.39999C7.2 5.51633 6.48366 4.79999 5.6 4.79999C4.71634 4.79999 4 5.51633 4 6.39999L4 6.79999C4 7.0209 4.17909 7.19999 4.4 7.19999L6.8 7.19999ZM11.44 9.60003L10.744 9.19203C10.5687 9.09397 10.3481 9.13809 10.224 9.29603C9.69802 9.99455 8.87441 10.4054 8 10.4054C7.12559 10.4054 6.30198 9.99455 5.776 9.29603C5.6519 9.13809 5.4313 9.09397 5.256 9.19203L4.56 9.60003C4.46205 9.65748 4.39247 9.75314 4.368 9.86403C4.34422 9.9724 4.36747 10.0858 4.432 10.176C5.25701 11.3254 6.58519 12.007 8 12.007C9.41481 12.007 10.743 11.3254 11.568 10.176C11.6325 10.0858 11.6558 9.9724 11.632 9.86403C11.6075 9.75314 11.5379 9.65748 11.44 9.60003Z" transform="translate(0.5 0.5)" id="emoji-icon" fill="#A7A8B8" fill-rule="evenodd" stroke="none" />
</svg>