<?xml version="1.0" encoding="utf-8"?>
<svg width="21px" height="17px" viewbox="0 0 21 17" version="1.1" xmlns:xlink="http://www.w3.org/1999/xlink" xmlns="http://www.w3.org/2000/svg">
  <path d="M18 0L2 0C0.895431 0 0 0.895431 0 2L0 14C0 15.1046 0.895431 16 2 16L18 16C19.1046 16 20 15.1046 20 14L20 2C20 0.895431 19.1046 0 18 0ZM18 6.99999L11.65 11.45C10.659 12.1427 9.34095 12.1427 8.35 11.45L2 6.99999L2 4.89999L9.35 10.05C9.74087 10.3213 10.2591 10.3213 10.65 10.05L18 4.89999L18 6.99999Z" transform="translate(0.5 0.5)" id="mail-icon" fill="#FFFFFF" fill-opacity="0.4" fill-rule="evenodd" stroke="none" />
</svg>