<?xml version="1.0" encoding="utf-8"?>
<svg width="23px" height="15px" viewbox="0 0 23 15" version="1.1" xmlns:xlink="http://www.w3.org/1999/xlink" xmlns="http://www.w3.org/2000/svg">
  <path d="M3.99805 3C3.99805 1.34315 5.34156 0 6.99887 0C8.65618 0 9.9997 1.34315 9.9997 3C9.9997 4.65685 8.65618 6 6.99887 6C5.34156 6 3.99805 4.65685 3.99805 3ZM15.0011 6C16.6584 6 18.0019 4.65685 18.0019 3C18.0019 1.34315 16.6584 0 15.0011 0C13.3438 0 12.0002 1.34315 12.0002 3C12.0002 4.65685 13.3438 6 15.0011 6ZM21.893 12.55L20.4526 9.66C19.9453 8.64407 18.9077 8.00155 17.7719 8L13.7708 8C13.9538 8.23806 14.1145 8.49247 14.2509 8.76L15.7013 11.66C16.0602 12.3901 16.1071 13.2346 15.8313 14L21.0027 14C21.3494 13.999 21.6709 13.8185 21.8522 13.5231C22.0336 13.2277 22.049 12.8595 21.893 12.55ZM12.4504 9.66001C11.9415 8.64085 10.8991 7.99777 9.75966 8.00001L4.23814 8.00001C3.09873 7.99777 2.05634 8.64085 1.5474 9.66001L0.107004 12.55C-0.049008 12.8595 -0.0335798 13.2277 0.147778 13.5231C0.329137 13.8185 0.65056 13.999 0.997249 14L13.0005 14C13.3472 13.999 13.6687 13.8185 13.85 13.5231C14.0314 13.2277 14.0468 12.8595 13.8908 12.55L12.4504 9.66001Z" transform="translate(0.5 0.5)" id="team-icon" fill="#FFFFFF" fill-opacity="0.40111142" fill-rule="evenodd" stroke="none" />
</svg>