<?xml version="1.0" encoding="utf-8"?>
<svg width="20px" height="20px" viewbox="0 0 20 20" version="1.1" xmlns:xlink="http://www.w3.org/1999/xlink" xmlns="http://www.w3.org/2000/svg">
  <path d="M18.0033 7.47016C18.011 7.60589 17.9642 7.73909 17.8733 7.84016C17.7765 7.94108 17.6431 7.99875 17.5033 8.00016L10.0033 8.00016L10.0033 0.520163C10.0047 0.380334 10.0624 0.246966 10.1633 0.150163C10.2605 0.0509555 10.3945 -0.00338276 10.5333 0.000163303C14.5471 0.258331 17.7451 3.45639 18.0033 7.47016ZM15.4833 10.0002L8.00333 10.0002L8.00333 2.52018C8.00344 2.38403 7.94802 2.25372 7.84988 2.15936C7.75174 2.06499 7.61937 2.01473 7.48333 2.02018C3.20802 2.29689 -0.0904039 5.89255 0.00189029 10.1758C0.0941845 14.4591 3.54443 17.9093 7.82769 18.0016C12.111 18.0939 15.7066 14.7955 15.9833 10.5202C15.9888 10.3841 15.9385 10.2518 15.8441 10.1536C15.7498 10.0555 15.6195 10.0001 15.4833 10.0002Z" transform="translate(0.5 0.5)" id="chart-icon" fill="#FFFFFF" fill-opacity="0.40201822" fill-rule="evenodd" stroke="none" />
</svg>