<?xml version="1.0" encoding="utf-8"?>
<svg width="17px" height="21px" viewbox="0 0 17 21" version="1.1" xmlns:xlink="http://www.w3.org/1999/xlink" xmlns="http://www.w3.org/2000/svg">
  <path d="M6 18L10 18C10 19.1046 9.10457 20 8 20C6.89543 20 6 19.1046 6 18ZM15.71 13.71L14.88 12.88C14.3172 12.3179 14.0007 11.5554 14 10.76L14 8C14 6.70178 13.5789 5.43858 12.8 4.4L11.9 3.2C11.3334 2.44458 10.4443 2 9.5 2L9 2L9 0.5C9 0.223858 8.77614 0 8.5 0L7.5 0C7.22386 0 7 0.223858 7 0.5L7 2L6.5 2C5.55573 2 4.66656 2.44458 4.1 3.2L3.2 4.4C2.42107 5.43858 2 6.70178 2 8L2 10.76C1.9993 11.5554 1.68277 12.3179 1.12 12.88L0.29 13.71C0.105256 13.8963 0.00110462 14.1477 0 14.41L0 15C0 15.5523 0.447715 16 1 16L15 16C15.5523 16 16 15.5523 16 15L16 14.41C15.9989 14.1477 15.8947 13.8963 15.71 13.71Z" transform="translate(0.5 0.5)" id="notification-icon" fill="#FFFFFF" fill-opacity="0.40199497" fill-rule="evenodd" stroke="none" />
</svg>