<?xml version="1.0" encoding="utf-8"?>
<svg width="20px" height="21px" viewbox="0 0 20 21" version="1.1" xmlns:xlink="http://www.w3.org/1999/xlink" xmlns="http://www.w3.org/2000/svg">
  <path d="M18.3702 12.7354L17.5702 12.0741C17.0851 11.6707 16.8183 11.0617 16.8502 10.4309C16.8502 10.2906 16.8502 10.1403 16.8502 10C16.8502 9.85972 16.8502 9.70942 16.8502 9.56914C16.8183 8.9383 17.0851 8.32932 17.5702 7.92587L18.3702 7.26455C18.7498 6.95612 18.8513 6.41797 18.6102 5.99202L17.4502 3.98803C17.2043 3.56962 16.6944 3.38806 16.2402 3.55717L15.2402 3.91789C14.6501 4.13888 13.9905 4.06834 13.4602 3.72751C13.2251 3.56478 12.9777 3.42072 12.7202 3.29665C12.1575 3.0075 11.7644 2.46873 11.6602 1.84376L11.4902 0.84176C11.411 0.351727 10.9856 -0.00630458 10.4902 8.41592e-05L8.1902 8.41592e-05C7.6948 -0.00630458 7.26942 0.351727 7.1902 0.84176L7.0202 1.84376C6.92468 2.46084 6.54754 2.99804 6.0002 3.29665C5.7427 3.42072 5.49528 3.56478 5.2602 3.72751C4.72991 4.06834 4.07034 4.13888 3.4802 3.91789L2.4802 3.55717C2.03175 3.39911 1.53423 3.57925 1.2902 3.98803L0.130197 5.99202C-0.110878 6.41797 -0.00938346 6.95612 0.370196 7.26455L1.1702 7.92587C1.65525 8.32932 1.92207 8.9383 1.8902 9.56914C1.8902 9.70942 1.8902 9.85972 1.8902 10C1.8902 10.1403 1.8902 10.2906 1.8902 10.4309C1.92207 11.0617 1.65525 11.6707 1.1702 12.0741L0.370196 12.7354C-0.00938346 13.0439 -0.110878 13.582 0.130197 14.008L1.2902 16.012C1.53607 16.4304 2.04595 16.6119 2.5002 16.4428L3.5002 16.0821C4.09034 15.8611 4.74991 15.9317 5.2802 16.2725C5.51528 16.4352 5.7627 16.5793 6.0202 16.7034C6.5829 16.9925 6.97597 17.5313 7.0802 18.1562L7.2502 19.1582C7.32942 19.6483 7.7548 20.0063 8.2502 19.9999L10.5502 19.9999C11.0456 20.0063 11.471 19.6483 11.5502 19.1582L11.7202 18.1562C11.8244 17.5313 12.2175 16.9925 12.7802 16.7034C13.0377 16.5793 13.2851 16.4352 13.5202 16.2725C14.0505 15.9317 14.7101 15.8611 15.3002 16.0821L16.3002 16.4428C16.7368 16.5797 17.2103 16.4022 17.4502 16.012L18.6102 14.008C18.8513 13.582 18.7498 13.0439 18.3702 12.7354ZM9.37024 13.006C7.71339 13.006 6.37024 11.6602 6.37024 10C6.37024 8.33984 7.71339 6.99402 9.37024 6.99402C11.0271 6.99402 12.3702 8.33984 12.3702 10C12.3702 10.7972 12.0542 11.5618 11.4916 12.1256C10.929 12.6893 10.1659 13.006 9.37024 13.006Z" transform="translate(0.5 0.5)" id="settings-icon" fill="#FFFFFF" fill-opacity="0.39899555" fill-rule="evenodd" stroke="none" />
</svg>